<svg width="250" height="70" viewBox="0 0 250 70" fill="none" xmlns="http://www.w3.org/2000/svg">
<rect width="250" height="70" fill="black"/>
<path d="M33.4328 47.036C31.7288 47.036 30.4568 47.024 29.6168 47V23.024C30.6488 23 32.1728 22.988 34.1888 22.988C36.2288 22.988 37.7528 23 38.7608 23.024C41.1128 23.048 43.1528 23.528 44.8808 24.464C46.6328 25.376 47.9768 26.684 48.9128 28.388C49.8728 30.092 50.3528 32.084 50.3528 34.364C50.3528 36.86 49.8008 39.056 48.6968 40.952C47.6168 42.848 46.0808 44.324 44.0888 45.38C42.1208 46.436 39.8288 46.976 37.2128 47C36.3728 47.024 35.1128 47.036 33.4328 47.036ZM37.1768 42.464C39.6008 42.464 41.5088 41.756 42.9008 40.34C44.2928 38.924 44.9888 36.98 44.9888 34.508C44.9888 32.276 44.3888 30.56 43.1888 29.36C42.0128 28.16 40.3088 27.56 38.0768 27.56H34.8368V42.464H37.1768ZM60.9849 47.468C59.5929 47.468 58.2609 47.312 56.9889 47C55.7409 46.688 54.6609 46.268 53.7489 45.74L54.1809 40.916C55.2609 41.588 56.3889 42.116 57.5649 42.5C58.7649 42.86 59.8689 43.04 60.8769 43.04C62.0289 43.04 62.9649 42.8 63.6849 42.32C64.4049 41.84 64.7649 41.204 64.7649 40.412C64.7649 39.764 64.5249 39.272 64.0449 38.936C63.5649 38.576 62.8089 38.192 61.7769 37.784L60.9129 37.424C60.7929 37.376 60.6609 37.328 60.5169 37.28C60.3729 37.208 60.2049 37.136 60.0129 37.064C58.6689 36.512 57.5889 35.996 56.7729 35.516C55.9569 35.012 55.2489 34.316 54.6489 33.428C54.0729 32.54 53.7849 31.388 53.7849 29.972C53.7849 27.668 54.5649 25.856 56.1249 24.536C57.6849 23.216 59.8569 22.556 62.6409 22.556C64.7529 22.556 66.9129 22.988 69.1209 23.852L68.3289 28.604C67.4409 28.1 66.4809 27.704 65.4489 27.416C64.4409 27.128 63.4809 26.984 62.5689 26.984C61.4409 26.984 60.5649 27.212 59.9409 27.668C59.3169 28.1 59.0049 28.688 59.0049 29.432C59.0049 30.08 59.2209 30.584 59.6529 30.944C60.0849 31.304 60.7809 31.688 61.7409 32.096L63.2169 32.672C64.6089 33.2 65.7609 33.716 66.6729 34.22C67.5849 34.724 68.3649 35.456 69.0129 36.416C69.6609 37.352 69.9849 38.576 69.9849 40.088C69.9849 42.416 69.1929 44.228 67.6089 45.524C66.0249 46.82 63.8169 47.468 60.9849 47.468ZM80.2899 23.024H86.5539L95.4459 47H90.0459L88.1019 41.528H78.6699L76.8339 47H71.5059L80.2899 23.024ZM86.5539 37.064L83.3139 27.884L80.1819 37.064H86.5539ZM107.82 27.56H101.268V23.024H119.556V27.56H113.076V47H107.82V27.56ZM121.479 28.46H126.555V31.484H126.843C127.539 30.26 128.223 29.36 128.895 28.784C129.591 28.208 130.455 27.92 131.487 27.92C131.919 27.92 132.279 27.968 132.567 28.064L132.027 33.536C131.403 33.368 130.899 33.284 130.515 33.284C129.963 33.284 129.471 33.392 129.039 33.608C128.631 33.824 128.259 34.112 127.923 34.472C127.611 34.832 127.155 35.384 126.555 36.128V47H121.479V28.46ZM140.481 47.54C138.561 47.54 137.037 46.724 135.909 45.092C134.781 43.46 134.217 41.24 134.217 38.432C134.217 35.024 135.081 32.432 136.809 30.656C138.537 28.856 141.021 27.956 144.261 27.956C146.085 27.956 148.221 28.244 150.669 28.82V47H145.845L145.953 44.048H145.809C145.185 45.176 144.417 46.04 143.505 46.64C142.617 47.24 141.609 47.54 140.481 47.54ZM141.561 43.112C142.305 43.112 143.037 42.716 143.757 41.924C144.477 41.132 145.149 40.076 145.773 38.756V32.708C145.005 32.492 144.237 32.384 143.469 32.384C142.029 32.384 140.937 32.876 140.193 33.86C139.473 34.844 139.113 36.296 139.113 38.216C139.113 39.728 139.329 40.928 139.761 41.816C140.193 42.68 140.793 43.112 141.561 43.112ZM163.972 47.54C160.9 47.54 158.512 46.724 156.808 45.092C155.128 43.46 154.288 41.156 154.288 38.18C154.288 36.164 154.684 34.388 155.476 32.852C156.268 31.292 157.384 30.092 158.824 29.252C160.264 28.388 161.932 27.956 163.828 27.956C164.716 27.956 165.64 28.064 166.6 28.28C167.584 28.472 168.34 28.7 168.868 28.964L167.896 33.248C167.344 32.984 166.732 32.78 166.06 32.636C165.412 32.468 164.8 32.384 164.224 32.384C162.736 32.384 161.536 32.888 160.624 33.896C159.736 34.904 159.292 36.236 159.292 37.892C159.292 39.572 159.748 40.868 160.66 41.78C161.596 42.692 162.916 43.148 164.62 43.148C165.748 43.148 166.96 42.932 168.256 42.5L169.012 46.604C167.452 47.228 165.772 47.54 163.972 47.54ZM177.705 38.936V47H172.629V20.684H177.705V35.228L183.501 28.46H189.513L182.097 36.776L189.909 46.784L184.401 47.54L177.705 38.936ZM200.291 47.54C197.291 47.54 194.927 46.676 193.199 44.948C191.495 43.22 190.643 40.82 190.643 37.748C190.643 35.756 191.015 34.028 191.759 32.564C192.503 31.076 193.547 29.936 194.891 29.144C196.259 28.352 197.855 27.956 199.679 27.956C202.367 27.956 204.431 28.82 205.871 30.548C207.311 32.276 208.031 34.772 208.031 38.036C208.031 38.588 208.019 38.996 207.995 39.26H195.755C195.995 40.532 196.547 41.504 197.411 42.176C198.275 42.824 199.439 43.148 200.903 43.148C201.791 43.148 202.715 43.04 203.675 42.824C204.635 42.584 205.475 42.272 206.195 41.888L207.023 45.956C206.063 46.46 204.995 46.844 203.819 47.108C202.667 47.396 201.491 47.54 200.291 47.54ZM203.171 35.444C203.099 34.412 202.739 33.596 202.091 32.996C201.443 32.372 200.579 32.06 199.499 32.06C198.467 32.06 197.615 32.36 196.943 32.96C196.295 33.56 195.887 34.388 195.719 35.444H203.171ZM211.936 28.46H217.012V31.484H217.3C217.996 30.26 218.68 29.36 219.352 28.784C220.048 28.208 220.912 27.92 221.944 27.92C222.376 27.92 222.736 27.968 223.024 28.064L222.484 33.536C221.86 33.368 221.356 33.284 220.972 33.284C220.42 33.284 219.928 33.392 219.496 33.608C219.088 33.824 218.716 34.112 218.38 34.472C218.068 34.832 217.612 35.384 217.012 36.128V47H211.936V28.46Z" fill="white"/>
</svg>
